<svg xmlns="http://www.w3.org/2000/svg" viewBox="0 0 200 180" fill="none">
  
  <defs>
    <radialGradient id="sky" cx="0.5" cy="0.45" r="0.55">
      <stop offset="0" stop-color="#F3F2FC"></stop>
      <stop offset="1" stop-color="#F9FAFC" stop-opacity="0"></stop>
    </radialGradient>
    <linearGradient id="cube-face" x1="0" x2="0" y1="0" y2="1">
      <stop offset="0" stop-color="#FFFFFF"></stop>
      <stop offset="1" stop-color="#E8ECF5"></stop>
    </linearGradient>
    <linearGradient id="cube-side" x1="0" x2="1" y1="0" y2="0">
      <stop offset="0" stop-color="#D8DEEC"></stop>
      <stop offset="1" stop-color="#EEF1F8"></stop>
    </linearGradient>
  </defs>

  
  <circle cx="100" cy="82" r="78" fill="url(#sky)"></circle>

  
  <g fill="#E3E6F1" opacity="0.9">
    <ellipse cx="60" cy="42" rx="14" ry="5"></ellipse>
    <ellipse cx="130" cy="30" rx="18" ry="6"></ellipse>
    <ellipse cx="150" cy="56" rx="10" ry="4"></ellipse>
  </g>

  
  <g>
    <rect x="38" y="118" width="2" height="14" fill="#C9CEDB"></rect>
    <circle cx="39" cy="112" r="10" fill="#DFE4F0"></circle>
  </g>

  
  <g transform="translate(108 86)">
    
    <path d="M6 4 L46 4 L56 16 L16 16 Z" fill="#F3F5FB" stroke="#D0D6E5" stroke-width="1"></path>
    
    <path d="M6 4 L16 16 L16 56 L6 44 Z" fill="url(#cube-side)" stroke="#D0D6E5" stroke-width="1"></path>
    
    <path d="M16 16 L56 16 L56 56 L16 56 Z" fill="url(#cube-face)" stroke="#D0D6E5" stroke-width="1" opacity="0.9"></path>
    
    <path d="M16 16 L6 4 L46 4 L56 16" fill="none" stroke="#C0C7DA" stroke-width="1"></path>
  </g>

  
  <g transform="translate(64 78)">
    
    <rect x="12" y="40" width="5" height="22" fill="#5A6B88" rx="1"></rect>
    <rect x="19" y="40" width="5" height="22" fill="#5A6B88" rx="1"></rect>
    
    <rect x="8" y="20" width="20" height="24" rx="4" fill="#B7C0D4"></rect>
    
    <path d="M26 24 Q36 22 42 14" stroke="#B7C0D4" stroke-width="4" stroke-linecap="round" fill="none"></path>
    
    <rect x="40" y="10" width="8" height="8" fill="#FFFFFF" stroke="#C0C7DA"></rect>
    
    <circle cx="18" cy="14" r="8" fill="#E8C7A8"></circle>
    
    <path d="M10 12 Q18 2 26 12 L26 10 Q18 4 10 10 Z" fill="#4A5268"></path>
  </g>
</svg>